<svg xmlns="http://www.w3.org/2000/svg" version="1.1" xmlns:xlink="http://www.w3.org/1999/xlink" xmlns:svgjs="http://svgjs.com/svgjs" width="70" height="70"><svg width="70" height="70" viewBox="0 0 70 70" fill="none" xmlns="http://www.w3.org/2000/svg">
<rect width="70" height="70" fill="#161616"></rect>
<path d="M39.1801 18.1764H39.3383L39.6942 19.1389H40.1005L39.6942 18.1214C39.9387 18.0059 40.0609 17.7419 40.0609 17.3294C40.0609 17.0874 40.007 16.8949 39.9027 16.7464C39.7985 16.5979 39.6547 16.5264 39.4749 16.5264H38.8314V19.1389H39.1801V18.1764ZM39.1801 17.0269H39.4497C39.6079 17.0269 39.687 17.1314 39.687 17.3459C39.687 17.5604 39.6079 17.6649 39.4497 17.6649H39.1801V17.0214V17.0269Z" fill="white"></path>
<path d="M39.3705 20.3324C39.8271 20.3324 40.201 20.1069 40.4958 19.6504C40.7906 19.1939 40.938 18.6164 40.938 17.9124C40.938 17.2084 40.7906 16.6309 40.4958 16.1744C40.201 15.7179 39.8235 15.4924 39.3705 15.4924C38.9175 15.4924 38.54 15.7179 38.2452 16.1744C37.9504 16.6309 37.803 17.2084 37.803 17.9124C37.803 18.6164 37.9504 19.1939 38.2452 19.6504C38.54 20.1069 38.9175 20.3324 39.3705 20.3324ZM38.5256 16.5869C38.7413 16.2459 39.0253 16.0754 39.3705 16.0754C39.7156 16.0754 39.9961 16.2459 40.2154 16.5869C40.4347 16.9279 40.5389 17.3679 40.5389 17.9124C40.5389 18.4569 40.4311 18.8969 40.2154 19.2379C39.9997 19.5789 39.7156 19.7494 39.3705 19.7494C39.0253 19.7494 38.7449 19.5789 38.5256 19.2379C38.3099 18.8969 38.202 18.4569 38.202 17.9124C38.202 17.3679 38.3099 16.9279 38.5256 16.5869Z" fill="white"></path>
<path d="M41.4307 21.8113L38.9069 30.2813L34.6609 16.0308L30.3934 30.2813L27.8048 21.7893L24.508 21.8113L15.822 50.9393H19.8127L26.1798 29.5938L28.4088 36.9088L24.2096 50.9338H28.2039L30.4222 43.5198L32.6835 50.9338H36.7389L38.9033 43.6683L41.0676 50.9338H45.0583L40.8986 36.9693L43.0773 29.6543L49.4156 50.9338H53.4063L44.7275 21.8058H41.4235L41.4307 21.8113ZM34.7005 44.3998L32.4103 36.8923L34.6537 29.4013L36.9115 36.9803L34.7005 44.4053V44.3998Z" fill="white"></path>
<path d="M50.7458 14.535C49.3652 9.959 46.3453 7 43.0521 7H25.9425C22.6528 7 19.6329 9.9535 18.2523 14.524L7.50624 50.076C6.72248 52.6665 6.8555 55.6475 7.85857 58.0565C8.86163 60.4655 10.5765 61.901 12.4425 61.9065L56.5413 62H56.5485C58.4144 62 60.1293 60.5645 61.136 58.161C62.1426 55.7575 62.2792 52.771 61.4955 50.175L50.7458 14.535ZM58.0764 55.169C57.7349 55.983 57.1776 56.445 56.5485 56.445L12.4496 56.3515C11.8169 56.3515 11.2596 55.884 10.9217 55.07C10.5801 54.256 10.5406 53.288 10.803 52.408L21.5491 16.856C22.3401 14.2435 24.0622 12.555 25.9425 12.555H43.0521C44.9359 12.555 46.6616 14.2435 47.449 16.8615L58.1951 52.507C58.4611 53.387 58.4144 54.355 58.0764 55.169Z" fill="white"></path>
</svg><style>@media (prefers-color-scheme: light) { :root { filter: none; } }
</style></svg>