<svg width="64" height="47" viewBox="0 0 64 47" fill="none" xmlns="http://www.w3.org/2000/svg">
<path d="M17.792 46.12C8.192 46.12 0.896 39.304 0.896 26.92C0.896 17.032 6.368 8.584 16.256 3.68799C21.152 1.288 26.432 0.0399952 31.808 0.0399952L33.728 2.72799C28.832 2.72799 18.848 5.512 14.144 10.984C11.744 13.768 10.496 16.072 10.496 17.896C11.552 16.552 15.584 15.208 19.712 15.208C24.8 15.208 28.736 17.32 31.424 21.544C34.304 8.776 46.976 0.0399952 61.76 0.0399952L63.68 2.72799C58.784 2.72799 48.8 5.512 44.096 10.984C41.696 13.768 40.448 16.072 40.448 17.896C41.504 16.552 45.536 15.208 49.664 15.208C58.016 15.208 63.872 21.928 63.872 30.184C63.872 39.4 57.536 46.12 47.744 46.12C41.024 46.12 35.36 42.568 32.768 36.712C30.368 42.568 25.088 46.12 17.792 46.12Z" fill="#161616"/>
</svg>
